<?xml version="1.0" encoding="UTF-8" standalone="no"?>
<!DOCTYPE svg PUBLIC "-//W3C//DTD SVG 1.1//EN"
 "http://www.w3.org/Graphics/SVG/1.1/DTD/svg11.dtd">
<!-- Generated by graphviz version 2.26.3 (20100126.1600)
 -->
<!-- Title: network Pages: 1 -->
<svg width="1728pt" height="332pt"
 viewBox="0.00 0.00 1728.00 332.00" xmlns="http://www.w3.org/2000/svg" xmlns:xlink="http://www.w3.org/1999/xlink">
<g id="graph1" class="graph" transform="scale(1 1) rotate(0) translate(4 328)">
<title>network</title>
<polygon fill="white" stroke="white" points="-4,5 -4,-328 1725,-328 1725,5 -4,5"/>
<!-- fiber -->
<g id="node1" class="node"><title>fiber</title>
<ellipse fill="none" stroke="black" cx="855" cy="-306" rx="32.157" ry="18"/>
<text text-anchor="middle" x="855" y="-301.9" font-family="Times Roman,serif" font-size="14.00">fiber</text>
</g>
<!-- router -->
<g id="node3" class="node"><title>router</title>
<ellipse fill="none" stroke="black" cx="855" cy="-234" rx="41.1906" ry="18"/>
<text text-anchor="middle" x="855" y="-229.9" font-family="Times Roman,serif" font-size="14.00">router</text>
</g>
<!-- fiber&#45;&#45;router -->
<g id="edge2" class="edge"><title>fiber&#45;&#45;router</title>
<path fill="none" stroke="black" d="M855,-287.831C855,-277 855,-263.288 855,-252.413"/>
</g>
<!-- internal_switch -->
<g id="node4" class="node"><title>internal_switch</title>
<ellipse fill="none" stroke="black" cx="855" cy="-162" rx="84.9707" ry="18"/>
<text text-anchor="middle" x="855" y="-157.9" font-family="Times Roman,serif" font-size="14.00">internal_switch</text>
</g>
<!-- router&#45;&#45;internal_switch -->
<g id="edge3" class="edge"><title>router&#45;&#45;internal_switch</title>
<path fill="none" stroke="black" d="M855,-215.831C855,-205 855,-191.288 855,-180.413"/>
</g>
<!-- sketchy -->
<g id="node6" class="node"><title>sketchy</title>
<ellipse fill="none" stroke="black" cx="48" cy="-90" rx="47.9469" ry="18"/>
<text text-anchor="middle" x="48" y="-85.9" font-family="Times Roman,serif" font-size="14.00">sketchy</text>
</g>
<!-- internal_switch&#45;&#45;sketchy -->
<g id="edge5" class="edge"><title>internal_switch&#45;&#45;sketchy</title>
<path fill="none" stroke="black" d="M771.424,-158.45C603.539,-150.913 230.659,-132.021 105,-108 97.763,-106.617 90.1558,-104.616 82.9405,-102.447"/>
</g>
<!-- E1_switch -->
<g id="node8" class="node"><title>E1_switch</title>
<ellipse fill="none" stroke="black" cx="174" cy="-90" rx="59.9551" ry="18"/>
<text text-anchor="middle" x="174" y="-85.9" font-family="Times Roman,serif" font-size="14.00">E1_switch</text>
</g>
<!-- internal_switch&#45;&#45;E1_switch -->
<g id="edge7" class="edge"><title>internal_switch&#45;&#45;E1_switch</title>
<path fill="none" stroke="black" d="M771.028,-159.034C652.561,-153.843 429.94,-140.397 243,-108 234.705,-106.563 225.949,-104.619 217.561,-102.539"/>
</g>
<!-- E2_switch -->
<g id="node11" class="node"><title>E2_switch</title>
<ellipse fill="none" stroke="black" cx="312" cy="-90" rx="59.9551" ry="18"/>
<text text-anchor="middle" x="312" y="-85.9" font-family="Times Roman,serif" font-size="14.00">E2_switch</text>
</g>
<!-- internal_switch&#45;&#45;E2_switch -->
<g id="edge10" class="edge"><title>internal_switch&#45;&#45;E2_switch</title>
<path fill="none" stroke="black" d="M776.491,-154.944C685.029,-146.216 529.528,-129.798 397,-108 384.944,-106.017 372.007,-103.487 359.955,-100.954"/>
</g>
<!-- E3_switch -->
<g id="node16" class="node"><title>E3_switch</title>
<ellipse fill="none" stroke="black" cx="466" cy="-90" rx="59.9551" ry="18"/>
<text text-anchor="middle" x="466" y="-85.9" font-family="Times Roman,serif" font-size="14.00">E3_switch</text>
</g>
<!-- internal_switch&#45;&#45;E3_switch -->
<g id="edge15" class="edge"><title>internal_switch&#45;&#45;E3_switch</title>
<path fill="none" stroke="black" d="M790.765,-150.111C714.157,-135.931 587.653,-112.517 517.274,-99.4903"/>
</g>
<!-- C1_switch -->
<g id="node19" class="node"><title>C1_switch</title>
<ellipse fill="none" stroke="black" cx="637" cy="-90" rx="61.1496" ry="18"/>
<text text-anchor="middle" x="637" y="-85.9" font-family="Times Roman,serif" font-size="14.00">C1_switch</text>
</g>
<!-- internal_switch&#45;&#45;C1_switch -->
<g id="edge18" class="edge"><title>internal_switch&#45;&#45;C1_switch</title>
<path fill="none" stroke="black" d="M809.034,-146.819C770.184,-133.987 715.057,-115.78 677.761,-103.462"/>
</g>
<!-- C2_switch -->
<g id="node22" class="node"><title>C2_switch</title>
<ellipse fill="none" stroke="black" cx="785" cy="-90" rx="61.1496" ry="18"/>
<text text-anchor="middle" x="785" y="-85.9" font-family="Times Roman,serif" font-size="14.00">C2_switch</text>
</g>
<!-- internal_switch&#45;&#45;C2_switch -->
<g id="edge21" class="edge"><title>internal_switch&#45;&#45;C2_switch</title>
<path fill="none" stroke="black" d="M837.697,-144.202C826.765,-132.959 812.709,-118.5 801.863,-107.345"/>
</g>
<!-- C3_switch -->
<g id="node29" class="node"><title>C3_switch</title>
<ellipse fill="none" stroke="black" cx="925" cy="-90" rx="61.1496" ry="18"/>
<text text-anchor="middle" x="925" y="-85.9" font-family="Times Roman,serif" font-size="14.00">C3_switch</text>
</g>
<!-- internal_switch&#45;&#45;C3_switch -->
<g id="edge28" class="edge"><title>internal_switch&#45;&#45;C3_switch</title>
<path fill="none" stroke="black" d="M872.303,-144.202C883.235,-132.959 897.291,-118.5 908.137,-107.345"/>
</g>
<!-- W1_switch -->
<g id="node32" class="node"><title>W1_switch</title>
<ellipse fill="none" stroke="black" cx="1068" cy="-90" rx="64.1231" ry="18"/>
<text text-anchor="middle" x="1068" y="-85.9" font-family="Times Roman,serif" font-size="14.00">W1_switch</text>
</g>
<!-- internal_switch&#45;&#45;W1_switch -->
<g id="edge31" class="edge"><title>internal_switch&#45;&#45;W1_switch</title>
<path fill="none" stroke="black" d="M900.172,-146.731C937.662,-134.058 990.533,-116.186 1026.86,-103.906"/>
</g>
<!-- W2_switch -->
<g id="node35" class="node"><title>W2_switch</title>
<ellipse fill="none" stroke="black" cx="1214" cy="-90" rx="64.1231" ry="18"/>
<text text-anchor="middle" x="1214" y="-85.9" font-family="Times Roman,serif" font-size="14.00">W2_switch</text>
</g>
<!-- internal_switch&#45;&#45;W2_switch -->
<g id="edge34" class="edge"><title>internal_switch&#45;&#45;W2_switch</title>
<path fill="none" stroke="black" d="M921.094,-150.588C979.195,-140.301 1065.95,-124.325 1141,-108 1149.29,-106.197 1158.08,-104.149 1166.57,-102.096"/>
</g>
<!-- W3_switch -->
<g id="node40" class="node"><title>W3_switch</title>
<ellipse fill="none" stroke="black" cx="1360" cy="-90" rx="64.1231" ry="18"/>
<text text-anchor="middle" x="1360" y="-85.9" font-family="Times Roman,serif" font-size="14.00">W3_switch</text>
</g>
<!-- internal_switch&#45;&#45;W3_switch -->
<g id="edge39" class="edge"><title>internal_switch&#45;&#45;W3_switch</title>
<path fill="none" stroke="black" d="M933.467,-154.987C1020.36,-146.572 1164.37,-130.702 1287,-108 1295.47,-106.432 1304.43,-104.476 1313.05,-102.436"/>
</g>
<!-- study_wap -->
<g id="node43" class="node"><title>study_wap</title>
<ellipse fill="none" stroke="black" cx="1506" cy="-90" rx="63.9292" ry="18"/>
<text text-anchor="middle" x="1506" y="-85.9" font-family="Times Roman,serif" font-size="14.00">study_wap</text>
</g>
<!-- internal_switch&#45;&#45;study_wap -->
<g id="edge42" class="edge"><title>internal_switch&#45;&#45;study_wap</title>
<path fill="none" stroke="black" d="M938.298,-158.111C1051.08,-151.96 1258.35,-137.522 1433,-108 1441.62,-106.542 1450.73,-104.615 1459.48,-102.563"/>
</g>
<!-- dining_wap -->
<g id="node45" class="node"><title>dining_wap</title>
<ellipse fill="none" stroke="black" cx="1654" cy="-90" rx="66.0138" ry="18"/>
<text text-anchor="middle" x="1654" y="-85.9" font-family="Times Roman,serif" font-size="14.00">dining_wap</text>
</g>
<!-- internal_switch&#45;&#45;dining_wap -->
<g id="edge44" class="edge"><title>internal_switch&#45;&#45;dining_wap</title>
<path fill="none" stroke="black" d="M939.665,-160.101C1075.35,-156.069 1349.55,-143.852 1579,-108 1588,-106.594 1597.51,-104.665 1606.62,-102.59"/>
</g>
<!-- E1_wap -->
<g id="node9" class="node"><title>E1_wap</title>
<ellipse fill="none" stroke="black" cx="66" cy="-18" rx="48.8383" ry="18"/>
<text text-anchor="middle" x="66" y="-13.9" font-family="Times Roman,serif" font-size="14.00">E1_wap</text>
</g>
<!-- E1_switch&#45;&#45;E1_wap -->
<g id="edge8" class="edge"><title>E1_switch&#45;&#45;E1_wap</title>
<path fill="none" stroke="black" d="M149.223,-73.4817C131.412,-61.6078 107.531,-45.6875 89.9195,-33.9463"/>
</g>
<!-- E2_wap -->
<g id="node12" class="node"><title>E2_wap</title>
<ellipse fill="none" stroke="black" cx="182" cy="-18" rx="48.8383" ry="18"/>
<text text-anchor="middle" x="182" y="-13.9" font-family="Times Roman,serif" font-size="14.00">E2_wap</text>
</g>
<!-- E2_switch&#45;&#45;E2_wap -->
<g id="edge11" class="edge"><title>E2_switch&#45;&#45;E2_wap</title>
<path fill="none" stroke="black" d="M283.149,-74.0209C261.157,-61.8407 231.07,-45.1771 209.436,-33.1951"/>
</g>
<!-- E2_wap2 -->
<g id="node14" class="node"><title>E2_wap2</title>
<ellipse fill="none" stroke="black" cx="304" cy="-18" rx="55.0898" ry="18"/>
<text text-anchor="middle" x="304" y="-13.9" font-family="Times Roman,serif" font-size="14.00">E2_wap2</text>
</g>
<!-- E2_switch&#45;&#45;E2_wap2 -->
<g id="edge13" class="edge"><title>E2_switch&#45;&#45;E2_wap2</title>
<path fill="none" stroke="black" d="M309.981,-71.8314C308.778,-61 307.254,-47.2876 306.046,-36.4133"/>
</g>
<!-- E3_wap -->
<g id="node17" class="node"><title>E3_wap</title>
<ellipse fill="none" stroke="black" cx="426" cy="-18" rx="48.8383" ry="18"/>
<text text-anchor="middle" x="426" y="-13.9" font-family="Times Roman,serif" font-size="14.00">E3_wap</text>
</g>
<!-- E3_switch&#45;&#45;E3_wap -->
<g id="edge16" class="edge"><title>E3_switch&#45;&#45;E3_wap</title>
<path fill="none" stroke="black" d="M456.112,-72.2022C449.958,-61.1252 442.071,-46.928 435.913,-35.8425"/>
</g>
<!-- C1_wap -->
<g id="node20" class="node"><title>C1_wap</title>
<ellipse fill="none" stroke="black" cx="543" cy="-18" rx="50.0315" ry="18"/>
<text text-anchor="middle" x="543" y="-13.9" font-family="Times Roman,serif" font-size="14.00">C1_wap</text>
</g>
<!-- C1_switch&#45;&#45;C1_wap -->
<g id="edge19" class="edge"><title>C1_switch&#45;&#45;C1_wap</title>
<path fill="none" stroke="black" d="M614.723,-72.937C599.522,-61.2933 579.496,-45.9547 564.47,-34.4449"/>
</g>
<!-- C2_wap -->
<g id="node23" class="node"><title>C2_wap</title>
<ellipse fill="none" stroke="black" cx="661" cy="-18" rx="50.0315" ry="18"/>
<text text-anchor="middle" x="661" y="-13.9" font-family="Times Roman,serif" font-size="14.00">C2_wap</text>
</g>
<!-- C2_switch&#45;&#45;C2_wap -->
<g id="edge22" class="edge"><title>C2_switch&#45;&#45;C2_wap</title>
<path fill="none" stroke="black" d="M757.172,-73.8418C736.322,-61.7352 707.973,-45.2748 687.461,-33.3644"/>
</g>
<!-- C2_wap2 -->
<g id="node25" class="node"><title>C2_wap2</title>
<ellipse fill="none" stroke="black" cx="785" cy="-18" rx="55.7874" ry="18"/>
<text text-anchor="middle" x="785" y="-13.9" font-family="Times Roman,serif" font-size="14.00">C2_wap2</text>
</g>
<!-- C2_switch&#45;&#45;C2_wap2 -->
<g id="edge24" class="edge"><title>C2_switch&#45;&#45;C2_wap2</title>
<path fill="none" stroke="black" d="M785,-71.8314C785,-61 785,-47.2876 785,-36.4133"/>
</g>
<!-- C2_wap3 -->
<g id="node27" class="node"><title>C2_wap3</title>
<ellipse fill="none" stroke="black" cx="915" cy="-18" rx="55.7874" ry="18"/>
<text text-anchor="middle" x="915" y="-13.9" font-family="Times Roman,serif" font-size="14.00">C2_wap3</text>
</g>
<!-- C2_switch&#45;&#45;C2_wap3 -->
<g id="edge26" class="edge"><title>C2_switch&#45;&#45;C2_wap3</title>
<path fill="none" stroke="black" d="M813.851,-74.0209C835.544,-62.0064 865.113,-45.6297 886.677,-33.6867"/>
</g>
<!-- C3_wap -->
<g id="node30" class="node"><title>C3_wap</title>
<ellipse fill="none" stroke="black" cx="1039" cy="-18" rx="50.0315" ry="18"/>
<text text-anchor="middle" x="1039" y="-13.9" font-family="Times Roman,serif" font-size="14.00">C3_wap</text>
</g>
<!-- C3_switch&#45;&#45;C3_wap -->
<g id="edge29" class="edge"><title>C3_switch&#45;&#45;C3_wap</title>
<path fill="none" stroke="black" d="M950.868,-73.6621C969.788,-61.7129 995.308,-45.5947 1014.02,-33.7784"/>
</g>
<!-- W1_wap -->
<g id="node33" class="node"><title>W1_wap</title>
<ellipse fill="none" stroke="black" cx="1160" cy="-18" rx="53.0059" ry="18"/>
<text text-anchor="middle" x="1160" y="-13.9" font-family="Times Roman,serif" font-size="14.00">W1_wap</text>
</g>
<!-- W1_switch&#45;&#45;W1_wap -->
<g id="edge32" class="edge"><title>W1_switch&#45;&#45;W1_wap</title>
<path fill="none" stroke="black" d="M1089.8,-72.937C1104.57,-61.3765 1124,-46.1737 1138.67,-34.6921"/>
</g>
<!-- W2_wap -->
<g id="node36" class="node"><title>W2_wap</title>
<ellipse fill="none" stroke="black" cx="1284" cy="-18" rx="53.0059" ry="18"/>
<text text-anchor="middle" x="1284" y="-13.9" font-family="Times Roman,serif" font-size="14.00">W2_wap</text>
</g>
<!-- W2_switch&#45;&#45;W2_wap -->
<g id="edge35" class="edge"><title>W2_switch&#45;&#45;W2_wap</title>
<path fill="none" stroke="black" d="M1230.95,-72.5708C1241.95,-61.2506 1256.24,-46.5568 1267.21,-35.2687"/>
</g>
<!-- W2_wap2 -->
<g id="node38" class="node"><title>W2_wap2</title>
<ellipse fill="none" stroke="black" cx="1415" cy="-18" rx="59.7599" ry="18"/>
<text text-anchor="middle" x="1415" y="-13.9" font-family="Times Roman,serif" font-size="14.00">W2_wap2</text>
</g>
<!-- W2_switch&#45;&#45;W2_wap2 -->
<g id="edge37" class="edge"><title>W2_switch&#45;&#45;W2_wap2</title>
<path fill="none" stroke="black" d="M1253.71,-75.7751C1289.29,-63.0296 1341.16,-44.4511 1376.4,-31.8284"/>
</g>
<!-- W3_wap -->
<g id="node41" class="node"><title>W3_wap</title>
<ellipse fill="none" stroke="black" cx="1546" cy="-18" rx="53.0059" ry="18"/>
<text text-anchor="middle" x="1546" y="-13.9" font-family="Times Roman,serif" font-size="14.00">W3_wap</text>
</g>
<!-- W3_switch&#45;&#45;W3_wap -->
<g id="edge40" class="edge"><title>W3_switch&#45;&#45;W3_wap</title>
<path fill="none" stroke="black" d="M1397.64,-75.4297C1430.76,-62.6093 1478.61,-44.088 1510.93,-31.5744"/>
</g>
</g>
</svg>
